<svg width="512" height="512" viewBox="0 0 512 512" fill="none" xmlns="http://www.w3.org/2000/svg">
<rect width="512" height="512" fill="black"/>
<path d="M261.72 266.424C260.952 267.064 259.8 267.512 258.264 267.768C256.728 268.152 255.384 268.344 254.232 268.344L165.144 146.04C165.272 156.024 165.4 165.88 165.528 175.608C165.784 185.336 165.976 195.064 166.104 204.792C166.36 214.52 166.616 224.376 166.872 234.36C167.256 244.216 167.704 254.392 168.216 264.888C166.808 265.912 164.696 266.744 161.88 267.384C159.064 268.024 156.376 268.344 153.816 268.344C154.072 257.208 154.328 246.392 154.584 235.896C154.84 225.272 155.096 214.52 155.352 203.64C155.608 192.632 155.864 181.304 156.12 169.656C156.376 157.88 156.696 145.336 157.08 132.024C159.256 131 161.688 130.168 164.376 129.528C167.192 128.888 169.944 128.568 172.632 128.568L253.08 239.928C252.824 220.984 252.504 202.36 252.12 184.056C251.864 165.752 251.416 148.472 250.776 132.216C252.952 130.936 255.32 130.04 257.88 129.528C260.568 128.888 263 128.568 265.176 128.568C264.536 149.048 263.96 170.936 263.448 194.232C262.936 217.528 262.36 241.592 261.72 266.424Z" fill="white"/>
<path d="M296.864 351.272C294.816 352.424 292.384 353.192 289.568 353.576C286.88 354.088 284.064 354.344 281.12 354.344V219.56C282.912 218.536 285.216 217.64 288.032 216.872C290.976 216.104 293.92 215.656 296.864 215.528C299.936 215.4 304.48 215.336 310.496 215.336C316.64 215.208 323.232 215.08 330.272 214.952C337.312 214.824 344.352 214.76 351.392 214.76C358.432 214.632 364.448 214.568 369.44 214.568C369.184 217.128 368.48 219.496 367.328 221.672C366.304 223.848 365.024 225.256 363.488 225.896C359.008 225.896 353.952 225.832 348.32 225.704C342.688 225.576 336.864 225.448 330.848 225.32C324.832 225.064 318.88 224.872 312.992 224.744C307.104 224.488 301.728 224.232 296.864 223.976V280.232L356.768 279.08C356.512 281.384 355.872 283.496 354.848 285.416C353.824 287.336 352.672 288.424 351.392 288.68C342.176 288.552 333.088 288.488 324.128 288.488C315.168 288.488 306.08 288.36 296.864 288.104V351.272Z" fill="white"/>
</svg>
