<svg width="504" height="96" viewBox="0 0 504 96" fill="none" xmlns="http://www.w3.org/2000/svg">
<path d="M29.5816 24.7671V57.2976H22.8789L9.80856 35.4914V57.2976H3.10585V24.7671H9.80856L22.9012 46.5956V24.7671H29.5816ZM54.2699 46.5062H60.9503C60.8162 48.6958 60.213 50.6396 59.1405 52.3376C58.083 54.0356 56.601 55.3613 54.6944 56.3145C52.8028 57.2678 50.5238 57.7445 47.8576 57.7445C45.7724 57.7445 43.903 57.387 42.2497 56.672C40.5964 55.9422 39.1814 54.8995 38.0047 53.5441C36.8428 52.1886 35.9566 50.5502 35.3459 48.6288C34.7352 46.7073 34.4299 44.555 34.4299 42.1718V39.9152C34.4299 37.532 34.7427 35.3797 35.3683 33.4583C36.0087 31.5219 36.9173 29.8761 38.094 28.5206C39.2856 27.1652 40.7081 26.1225 42.3614 25.3927C44.0148 24.6628 45.8617 24.2979 47.9023 24.2979C50.6132 24.2979 52.8996 24.7894 54.7614 25.7725C56.6382 26.7556 58.0905 28.111 59.1182 29.8388C60.1609 31.5666 60.7864 33.5328 60.995 35.7372H54.2923C54.2178 34.4265 53.9571 33.3168 53.5103 32.4082C53.0634 31.4847 52.3857 30.7921 51.4771 30.3304C50.5834 29.8537 49.3918 29.6154 47.9023 29.6154C46.7852 29.6154 45.8096 29.8239 44.9755 30.241C44.1414 30.658 43.4413 31.2911 42.8753 32.1401C42.3093 32.9891 41.8848 34.0615 41.6018 35.3574C41.3337 36.6383 41.1996 38.1427 41.1996 39.8705V42.1718C41.1996 43.8549 41.3262 45.337 41.5794 46.6179C41.8326 47.884 42.2199 48.9565 42.7412 49.8353C43.2775 50.6992 43.9626 51.3545 44.7967 51.8014C45.6457 52.2333 46.6661 52.4493 47.8576 52.4493C49.2578 52.4493 50.4121 52.2259 51.3207 51.779C52.2293 51.3322 52.9219 50.6694 53.3986 49.7906C53.8901 48.9118 54.1805 47.817 54.2699 46.5062ZM72.479 24.7671V57.2976H65.7986V24.7671H72.479ZM85.8844 24.7671V57.2976H79.204V24.7671H85.8844ZM104.831 45.7019H96.5417V40.4738H104.831C106.112 40.4738 107.154 40.2653 107.959 39.8482C108.763 39.4163 109.351 38.8205 109.724 38.0608C110.096 37.3012 110.282 36.4447 110.282 35.4914C110.282 34.5233 110.096 33.6221 109.724 32.788C109.351 31.9539 108.763 31.2836 107.959 30.7772C107.154 30.2708 106.112 30.0176 104.831 30.0176H98.8653V57.2976H92.1626V24.7671H104.831C107.378 24.7671 109.56 25.2288 111.377 26.1523C113.209 27.0609 114.609 28.3195 115.577 29.9282C116.546 31.5368 117.03 33.3764 117.03 35.4468C117.03 37.5469 116.546 39.3641 115.577 40.8983C114.609 42.4325 113.209 43.6166 111.377 44.4507C109.56 45.2849 107.378 45.7019 104.831 45.7019ZM140.512 46.5062H147.192C147.058 48.6958 146.455 50.6396 145.382 52.3376C144.325 54.0356 142.843 55.3613 140.936 56.3145C139.044 57.2678 136.765 57.7445 134.099 57.7445C132.014 57.7445 130.145 57.387 128.491 56.672C126.838 55.9422 125.423 54.8995 124.246 53.5441C123.084 52.1886 122.198 50.5502 121.588 48.6288C120.977 46.7073 120.671 44.555 120.671 42.1718V39.9152C120.671 37.532 120.984 35.3797 121.61 33.4583C122.25 31.5219 123.159 29.8761 124.336 28.5206C125.527 27.1652 126.95 26.1225 128.603 25.3927C130.256 24.6628 132.103 24.2979 134.144 24.2979C136.855 24.2979 139.141 24.7894 141.003 25.7725C142.88 26.7556 144.332 28.111 145.36 29.8388C146.402 31.5666 147.028 33.5328 147.237 35.7372H140.534C140.459 34.4265 140.199 33.3168 139.752 32.4082C139.305 31.4847 138.627 30.7921 137.719 30.3304C136.825 29.8537 135.633 29.6154 134.144 29.6154C133.027 29.6154 132.051 29.8239 131.217 30.241C130.383 30.658 129.683 31.2911 129.117 32.1401C128.551 32.9891 128.126 34.0615 127.843 35.3574C127.575 36.6383 127.441 38.1427 127.441 39.8705V42.1718C127.441 43.8549 127.568 45.337 127.821 46.6179C128.074 47.884 128.462 48.9565 128.983 49.8353C129.519 50.6992 130.204 51.3545 131.038 51.8014C131.887 52.2333 132.908 52.4493 134.099 52.4493C135.499 52.4493 136.654 52.2259 137.562 51.779C138.471 51.3322 139.164 50.6694 139.64 49.7906C140.132 48.9118 140.422 47.817 140.512 46.5062ZM179.923 48.7852C179.923 48.2043 179.834 47.6829 179.655 47.2212C179.492 46.7446 179.179 46.3126 178.717 45.9253C178.255 45.5232 177.607 45.1285 176.773 44.7412C175.939 44.3539 174.859 43.9518 173.534 43.5347C172.059 43.0581 170.659 42.5218 169.333 41.926C168.022 41.3303 166.861 40.6376 165.848 39.8482C164.85 39.0439 164.06 38.1129 163.479 37.0554C162.913 35.9979 162.63 34.769 162.63 33.3689C162.63 32.0135 162.928 30.7846 163.524 29.6824C164.12 28.5653 164.954 27.612 166.027 26.8226C167.099 26.0183 168.365 25.4001 169.825 24.9682C171.299 24.5362 172.915 24.3202 174.673 24.3202C177.071 24.3202 179.164 24.7522 180.951 25.6161C182.739 26.48 184.124 27.6642 185.107 29.1685C186.105 30.6729 186.604 32.3933 186.604 34.3296H179.946C179.946 33.3764 179.745 32.5422 179.343 31.8273C178.955 31.0974 178.36 30.524 177.555 30.1069C176.766 29.6899 175.768 29.4813 174.561 29.4813C173.399 29.4813 172.431 29.6601 171.657 30.0176C170.882 30.3601 170.301 30.8293 169.914 31.4251C169.527 32.006 169.333 32.6614 169.333 33.3913C169.333 33.9424 169.467 34.4413 169.735 34.8882C170.018 35.335 170.435 35.7521 170.987 36.1394C171.538 36.5266 172.215 36.8916 173.02 37.2341C173.824 37.5767 174.755 37.9119 175.812 38.2396C177.585 38.7758 179.141 39.379 180.482 40.0493C181.837 40.7196 182.969 41.4718 183.878 42.3059C184.787 43.14 185.472 44.0858 185.934 45.1434C186.395 46.2009 186.626 47.3999 186.626 48.7405C186.626 50.1555 186.351 51.4216 185.8 52.5387C185.248 53.6558 184.452 54.6016 183.409 55.3762C182.366 56.1507 181.123 56.739 179.678 57.1412C178.233 57.5434 176.617 57.7445 174.829 57.7445C173.221 57.7445 171.634 57.5359 170.07 57.1189C168.507 56.6869 167.084 56.039 165.803 55.1751C164.537 54.3112 163.524 53.209 162.765 51.8684C162.005 50.5279 161.625 48.9416 161.625 47.1095H168.35C168.35 48.1223 168.507 48.9788 168.819 49.6789C169.132 50.3789 169.572 50.9449 170.138 51.3769C170.718 51.8088 171.404 52.1216 172.193 52.3153C172.997 52.5089 173.876 52.6057 174.829 52.6057C175.991 52.6057 176.944 52.4419 177.689 52.1142C178.449 51.7865 179.007 51.3322 179.365 50.7513C179.737 50.1704 179.923 49.515 179.923 48.7852ZM205.729 24.7671V57.2976H199.049V24.7671H205.729ZM215.738 24.7671V30.0176H189.196V24.7671H215.738ZM230.373 30.3304L221.525 57.2976H214.398L226.485 24.7671H231.021L230.373 30.3304ZM237.723 57.2976L228.853 30.3304L228.138 24.7671H232.719L244.873 57.2976H237.723ZM237.321 45.188V50.4385H220.14V45.188H237.321ZM247.889 24.7671H260.021C262.508 24.7671 264.646 25.1395 266.433 25.8842C268.235 26.629 269.621 27.7312 270.589 29.1909C271.557 30.6506 272.041 32.4454 272.041 34.5754C272.041 36.3181 271.743 37.815 271.147 39.0662C270.567 40.3025 269.74 41.3377 268.667 42.1718C267.61 42.991 266.366 43.6464 264.936 44.1379L262.814 45.2551H252.268L252.223 40.0269H260.066C261.242 40.0269 262.218 39.8184 262.992 39.4014C263.767 38.9843 264.348 38.4034 264.735 37.6587C265.137 36.9139 265.338 36.05 265.338 35.0669C265.338 34.0243 265.145 33.1231 264.758 32.3635C264.37 31.6039 263.782 31.023 262.992 30.6208C262.203 30.2186 261.213 30.0176 260.021 30.0176H254.592V57.2976H247.889V24.7671ZM266.076 57.2976L258.658 42.7974L265.741 42.7527L273.248 56.9848V57.2976H266.076ZM290.407 24.7671V57.2976H283.726V24.7671H290.407ZM300.416 24.7671V30.0176H273.873V24.7671H300.416ZM322.2 24.7671H328.88V46.2605C328.88 48.7628 328.344 50.8704 327.271 52.5834C326.214 54.2963 324.747 55.5847 322.87 56.4486C321.008 57.3125 318.863 57.7445 316.435 57.7445C314.008 57.7445 311.848 57.3125 309.956 56.4486C308.079 55.5847 306.605 54.2963 305.532 52.5834C304.475 50.8704 303.946 48.7628 303.946 46.2605V24.7671H310.649V46.2605C310.649 47.7202 310.88 48.9118 311.341 49.8353C311.803 50.7587 312.466 51.4365 313.33 51.8684C314.209 52.3004 315.244 52.5163 316.435 52.5163C317.657 52.5163 318.692 52.3004 319.541 51.8684C320.405 51.4365 321.06 50.7587 321.507 49.8353C321.969 48.9118 322.2 47.7202 322.2 46.2605V24.7671ZM347.067 45.7019H338.778V40.4738H347.067C348.348 40.4738 349.39 40.2653 350.195 39.8482C350.999 39.4163 351.587 38.8205 351.96 38.0608C352.332 37.3012 352.518 36.4447 352.518 35.4914C352.518 34.5233 352.332 33.6221 351.96 32.788C351.587 31.9539 350.999 31.2836 350.195 30.7772C349.39 30.2708 348.348 30.0176 347.067 30.0176H341.101V57.2976H334.399V24.7671H347.067C349.614 24.7671 351.796 25.2288 353.613 26.1523C355.445 27.0609 356.845 28.3195 357.814 29.9282C358.782 31.5368 359.266 33.3764 359.266 35.4468C359.266 37.5469 358.782 39.3641 357.814 40.8983C356.845 42.4325 355.445 43.6166 353.613 44.4507C351.796 45.2849 349.614 45.7019 347.067 45.7019ZM382.413 24.7671V57.2976H375.732V24.7671H382.413ZM415.166 24.7671V57.2976H408.464L395.393 35.4914V57.2976H388.691V24.7671H395.393L408.486 46.5956V24.7671H415.166ZM430.985 57.2976H423.902L423.947 52.0695H430.985C432.742 52.0695 434.224 51.6748 435.431 50.8853C436.637 50.081 437.546 48.9118 438.157 47.3776C438.782 45.8434 439.095 43.989 439.095 41.8143V40.228C439.095 38.5598 438.916 37.0926 438.559 35.8266C438.216 34.5605 437.702 33.4955 437.017 32.6316C436.332 31.7677 435.491 31.1198 434.493 30.6878C433.495 30.241 432.348 30.0176 431.052 30.0176H423.768V24.7671H431.052C433.227 24.7671 435.215 25.1395 437.017 25.8842C438.834 26.6141 440.406 27.6642 441.732 29.0345C443.057 30.4048 444.077 32.0433 444.792 33.9498C445.522 35.8415 445.887 37.9491 445.887 40.2727V41.8143C445.887 44.123 445.522 46.2307 444.792 48.1372C444.077 50.0438 443.057 51.6822 441.732 53.0526C440.421 54.408 438.849 55.4581 437.017 56.2028C435.2 56.9327 433.189 57.2976 430.985 57.2976ZM427.7 24.7671V57.2976H420.998V24.7671H427.7ZM457.885 24.7671V57.2976H451.205V24.7671H457.885ZM477.792 30.3304L468.945 57.2976H461.817L473.905 24.7671H478.44L477.792 30.3304ZM485.143 57.2976L476.273 30.3304L475.558 24.7671H480.138L492.292 57.2976H485.143ZM484.741 45.188V50.4385H467.559V45.188H484.741Z" fill="white"/>
<path d="M8.99125 13.1802L4.41106 13.1802L4.38872 12.0184L8.33215 12.0184C9.13648 12.0184 9.82164 11.9029 10.3876 11.6721C10.9537 11.4412 11.3819 11.0986 11.6723 10.6443C11.9702 10.1826 12.1192 9.61656 12.1192 8.94628C12.1192 8.26112 11.974 7.69511 11.6835 7.24826C11.3931 6.79397 10.9574 6.45883 10.3765 6.24286C9.79558 6.02688 9.06572 5.91889 8.18692 5.91889H4.76854L4.76854 21H3.39448L3.39448 4.73474L8.18692 4.73474C9.01359 4.73474 9.75461 4.81667 10.41 4.98051C11.0654 5.14435 11.6239 5.40129 12.0857 5.75132C12.5474 6.10135 12.8974 6.54448 13.1358 7.08069C13.3815 7.60946 13.5044 8.2425 13.5044 8.9798C13.5044 9.65007 13.3555 10.257 13.0576 10.8007C12.7597 11.3369 12.3389 11.7763 11.7952 12.1189C11.259 12.454 10.6148 12.6626 9.8626 12.7445L8.99125 13.1802ZM8.89071 21H3.97538L4.67917 19.827H8.89071C9.69503 19.827 10.3802 19.693 10.9462 19.4249C11.5197 19.1493 11.9591 18.7583 12.2644 18.2519C12.5698 17.7455 12.7224 17.1422 12.7224 16.4422C12.7224 15.824 12.5884 15.2692 12.3203 14.7776C12.0522 14.2861 11.6425 13.8988 11.0914 13.6158C10.5403 13.3254 9.84026 13.1802 8.99125 13.1802L6.1426 13.1802L6.16494 12.0184L10.1977 12.0184L10.4435 12.4317C11.1734 12.5062 11.8101 12.7333 12.3538 13.1131C12.9049 13.4855 13.3294 13.9584 13.6273 14.5319C13.9326 15.1053 14.0853 15.7346 14.0853 16.4198C14.0853 17.4029 13.8656 18.237 13.4262 18.9222C12.9943 19.5999 12.3873 20.1175 11.6053 20.475C10.8308 20.825 9.92591 21 8.89071 21ZM25.4688 7.98556L26.8093 7.98556L26.8093 16.7549C26.8093 17.7306 26.5859 18.5498 26.139 19.2126C25.6996 19.868 25.1038 20.3595 24.3516 20.6872C23.6069 21.0149 22.7728 21.1787 21.8493 21.1787C20.9035 21.1787 20.0545 21.0149 19.3023 20.6872C18.5575 20.3595 17.9692 19.868 17.5372 19.2126C17.1053 18.5498 16.8893 17.7306 16.8893 16.7549V7.98556H18.2075L18.2075 16.7549C18.2075 17.4848 18.3639 18.0955 18.6767 18.587C18.9895 19.0711 19.4177 19.436 19.9614 19.6818C20.5125 19.9201 21.1418 20.0393 21.8493 20.0393C22.5568 20.0393 23.1824 19.9201 23.7261 19.6818C24.2697 19.436 24.6942 19.0711 24.9996 18.587C25.3124 18.0955 25.4688 17.4848 25.4688 16.7549L25.4688 7.98556ZM31.6353 7.98556L31.6353 21H30.3059L30.3059 7.98556H31.6353ZM43.4991 19.8494V21H36.249V19.8494H43.4991ZM36.6735 7.98556V21H35.3441V7.98556H36.6735ZM49.7773 7.98556V21H48.4591V7.98556H49.7773ZM54.5362 7.98556V9.14737L43.7113 9.14737V7.98556L54.5362 7.98556ZM63.6854 7.98556V21H62.356V7.98556H63.6854ZM70.1312 13.8951V15.0458L63.2497 15.0458V13.8951L70.1312 13.8951ZM71.0584 7.98556V9.14737L63.2497 9.14737V7.98556L71.0584 7.98556ZM83.8382 13.8616V15.1351C83.8382 16.0586 83.7079 16.8927 83.4472 17.6375C83.194 18.3822 82.8254 19.019 82.3413 19.5477C81.8647 20.0765 81.2875 20.4824 80.6098 20.7654C79.9395 21.041 79.1873 21.1787 78.3532 21.1787C77.534 21.1787 76.7855 21.041 76.1078 20.7654C75.4375 20.4824 74.8603 20.0765 74.3762 19.5477C73.8922 19.019 73.5161 18.3822 73.2479 17.6375C72.9873 16.8927 72.857 16.0586 72.857 15.1351V13.8616C72.857 12.9381 72.9873 12.104 73.2479 11.3593C73.5086 10.6145 73.8773 9.97776 74.3539 9.44899C74.838 8.91277 75.4152 8.50688 76.0854 8.23133C76.7632 7.94832 77.5153 7.80682 78.342 7.80682C79.1761 7.80682 79.9283 7.94832 80.5986 8.23133C81.2763 8.50688 81.8535 8.91277 82.3301 9.44899C82.8142 9.97776 83.1866 10.6145 83.4472 11.3593C83.7079 12.104 83.8382 12.9381 83.8382 13.8616ZM82.52 15.1351V13.8393C82.52 13.0871 82.4269 12.4131 82.2408 11.8173C82.0546 11.2215 81.7827 10.7113 81.4253 10.2868C81.0678 9.86232 80.6284 9.53836 80.1071 9.31493C79.5932 9.09151 79.0048 8.9798 78.342 8.9798C77.6941 8.9798 77.1132 9.09151 76.5993 9.31493C76.0854 9.53836 75.6498 9.86232 75.2923 10.2868C74.9348 10.7113 74.6592 11.2215 74.4656 11.8173C74.2794 12.4131 74.1863 13.0871 74.1863 13.8393V15.1351C74.1863 15.8873 74.2794 16.565 74.4656 17.1683C74.6592 17.7715 74.9348 18.2854 75.2923 18.7099C75.6572 19.1344 76.0966 19.4584 76.6105 19.6818C77.1318 19.9052 77.7127 20.0169 78.3532 20.0169C79.0235 20.0169 79.6155 19.9052 80.1294 19.6818C80.6433 19.4584 81.079 19.1344 81.4364 18.7099C81.7939 18.2854 82.062 17.7715 82.2408 17.1683C82.4269 16.565 82.52 15.8873 82.52 15.1351ZM86.7204 7.98556L91.3341 7.98556C92.064 7.98556 92.7231 8.07493 93.3114 8.25367C93.9072 8.42496 94.4136 8.67818 94.8307 9.01331C95.2477 9.341 95.568 9.75061 95.7914 10.2421C96.0148 10.7262 96.1265 11.2811 96.1265 11.9066C96.1265 12.5397 95.9888 13.1057 95.7132 13.6047C95.4377 14.1037 95.0541 14.5207 94.5626 14.8558C94.0785 15.191 93.5162 15.4256 92.8757 15.5596L92.4177 15.7719H87.5806L87.5582 14.6212H91.5799C92.2948 14.6212 92.8869 14.4984 93.3561 14.2526C93.8327 14.0068 94.1902 13.6791 94.4285 13.2695C94.6668 12.8599 94.786 12.4205 94.786 11.9513C94.786 11.3853 94.652 10.8938 94.3838 10.4767C94.1232 10.0522 93.7359 9.72454 93.222 9.49367C92.7082 9.2628 92.0789 9.14737 91.3341 9.14737H88.0609V21H86.7204V7.98556ZM95.2887 21L91.7139 15.2692L93.1327 15.258L96.7075 20.8883V21H95.2887Z" fill="white"/>
<path d="M96.5737 70.8606L89.9839 89.0032H87.2905L94.8784 69.0969H96.6147L96.5737 70.8606ZM102.097 89.0032L95.4937 70.8606L95.4526 69.0969H97.189L104.804 89.0032H102.097ZM101.755 81.634V83.7942H90.5718V81.634H101.755ZM110.3 69.0969V89.0032H107.662V69.0969H110.3ZM136.755 79.0911V86.3782C136.509 86.7428 136.117 87.1529 135.58 87.6086C135.042 88.0553 134.299 88.4472 133.351 88.7844C132.412 89.1125 131.2 89.2766 129.714 89.2766C128.502 89.2766 127.386 89.067 126.365 88.6477C125.353 88.2193 124.473 87.5995 123.726 86.7883C122.988 85.968 122.414 84.9745 122.003 83.8079C121.602 82.6321 121.402 81.3014 121.402 79.8157V78.2708C121.402 76.7851 121.575 75.4589 121.921 74.2922C122.277 73.1256 122.796 72.1366 123.48 71.3254C124.164 70.5051 125.002 69.8853 125.996 69.4661C126.989 69.0377 128.128 68.8235 129.414 68.8235C130.936 68.8235 132.207 69.0878 133.228 69.6165C134.258 70.136 135.06 70.856 135.634 71.7766C136.218 72.6972 136.591 73.7454 136.755 74.9211H134.117C133.998 74.2011 133.761 73.5448 133.406 72.9524C133.059 72.3599 132.563 71.886 131.916 71.5305C131.268 71.1659 130.434 70.9836 129.414 70.9836C128.493 70.9836 127.695 71.1523 127.021 71.4895C126.347 71.8267 125.791 72.3098 125.353 72.9387C124.916 73.5676 124.587 74.3287 124.369 75.2219C124.159 76.1152 124.054 77.1223 124.054 78.2434V79.8157C124.054 80.9641 124.186 81.9895 124.451 82.8918C124.724 83.7942 125.111 84.5644 125.613 85.2024C126.114 85.8313 126.711 86.3098 127.404 86.6379C128.106 86.9661 128.88 87.1301 129.728 87.1301C130.667 87.1301 131.428 87.0527 132.011 86.8977C132.595 86.7336 133.05 86.5422 133.378 86.3235C133.707 86.0956 133.957 85.8814 134.13 85.6809V81.2239H129.523V79.0911H136.755ZM140.707 73.0754H146.531C147.497 73.0754 148.358 73.1848 149.115 73.4036C149.871 73.6132 150.509 73.9231 151.029 74.3333C151.548 74.7434 151.94 75.2493 152.205 75.8508C152.478 76.4524 152.615 77.1451 152.615 77.929C152.615 78.7128 152.455 79.4101 152.136 80.0208C151.826 80.6223 151.375 81.1327 150.783 81.552C150.199 81.9622 149.502 82.2766 148.691 82.4954L147.939 82.8645H142.552L142.525 80.7864H146.599C147.374 80.7864 148.016 80.6679 148.527 80.4309C149.037 80.1848 149.42 79.8567 149.675 79.4465C149.94 79.0273 150.072 78.5579 150.072 78.0383C150.072 77.4641 149.949 76.9628 149.703 76.5344C149.457 76.106 149.069 75.7734 148.541 75.5364C148.021 75.2903 147.351 75.1672 146.531 75.1672H143.25V89.0032H140.707V73.0754ZM150.619 89.0032L146.517 81.9075L149.183 81.8938L153.339 88.8665V89.0032H150.619ZM162.117 75.304L156.689 89.0032H154.105L160.654 73.0754H162.308L162.117 75.304ZM166.806 89.0032L161.419 75.2493L161.242 73.0754H162.91L169.376 89.0032H166.806ZM166.437 83.1106V85.1887H156.976V83.1106H166.437ZM184.88 73.0754V89.0032H182.351L174.093 77.0266V89.0032H171.564V73.0754H174.093L182.351 85.052V73.0754H184.88ZM193.439 89.0032H189.83L189.843 86.925H193.439C194.615 86.925 195.59 86.7063 196.365 86.2688C197.149 85.8313 197.732 85.2069 198.115 84.3958C198.498 83.5754 198.689 82.6047 198.689 81.4836V80.5813C198.689 79.7154 198.58 78.9452 198.361 78.2708C198.142 77.5963 197.819 77.0312 197.39 76.5754C196.962 76.1106 196.429 75.7597 195.791 75.5227C195.162 75.2857 194.432 75.1672 193.603 75.1672H189.748V73.0754H193.603C194.733 73.0754 195.763 73.2532 196.693 73.6086C197.632 73.955 198.438 74.4609 199.113 75.1262C199.787 75.7825 200.307 76.5754 200.671 77.5051C201.036 78.4257 201.218 79.4602 201.218 80.6086V81.4836C201.218 83.0058 200.895 84.3319 200.248 85.4622C199.61 86.5924 198.707 87.4674 197.541 88.0872C196.383 88.6978 195.016 89.0032 193.439 89.0032ZM191.21 73.0754V89.0032H188.681V73.0754H191.21ZM223.804 82.6731H226.429C226.292 83.9309 225.932 85.0566 225.349 86.05C224.766 87.0435 223.941 87.8319 222.875 88.4153C221.808 88.9895 220.477 89.2766 218.882 89.2766C217.716 89.2766 216.654 89.0579 215.697 88.6204C214.749 88.1829 213.933 87.5631 213.25 86.761C212.566 85.9498 212.037 84.9791 211.664 83.8489C211.299 82.7096 211.117 81.4426 211.117 80.0481V78.0657C211.117 76.6711 211.299 75.4088 211.664 74.2786C212.037 73.1392 212.57 72.164 213.263 71.3528C213.965 70.5416 214.808 69.9172 215.792 69.4797C216.777 69.0422 217.884 68.8235 219.115 68.8235C220.619 68.8235 221.89 69.106 222.929 69.6711C223.968 70.2362 224.775 71.0201 225.349 72.0227C225.932 73.0162 226.292 74.1692 226.429 75.4817H223.804C223.677 74.552 223.44 73.7545 223.093 73.0891C222.747 72.4146 222.255 71.8951 221.617 71.5305C220.979 71.1659 220.145 70.9836 219.115 70.9836C218.231 70.9836 217.451 71.1523 216.777 71.4895C216.111 71.8267 215.551 72.3053 215.095 72.925C214.649 73.5448 214.311 74.2877 214.083 75.1536C213.856 76.0194 213.742 76.981 213.742 78.0383V80.0481C213.742 81.0234 213.842 81.9394 214.042 82.7961C214.252 83.6529 214.567 84.4049 214.986 85.052C215.405 85.6991 215.938 86.2096 216.585 86.5833C217.233 86.9478 217.998 87.1301 218.882 87.1301C220.003 87.1301 220.897 86.9524 221.562 86.5969C222.227 86.2415 222.729 85.731 223.066 85.0657C223.412 84.4003 223.658 83.6028 223.804 82.6731ZM240.839 80.1028V82.1946H231.638V80.1028H240.839ZM232.144 73.0754V89.0032H229.615V73.0754H232.144ZM242.931 73.0754V89.0032H240.402V73.0754H242.931ZM253.117 75.304L247.689 89.0032H245.105L251.654 73.0754H253.308L253.117 75.304ZM257.806 89.0032L252.419 75.2493L252.242 73.0754H253.91L260.376 89.0032H257.806ZM257.437 83.1106V85.1887H247.976V83.1106H257.437ZM273.064 86.925V89.0032H264.478V86.925H273.064ZM265.093 73.0754V89.0032H262.564V73.0754H265.093ZM286.052 86.925V89.0032H277.466V86.925H286.052ZM278.082 73.0754V89.0032H275.552V73.0754H278.082ZM299.533 86.925V89.0032H290.455V86.925H299.533ZM291.07 73.0754V89.0032H288.541V73.0754H291.07ZM298.343 79.7336V81.7981H290.455V79.7336H298.343ZM299.451 73.0754V75.1672H290.455V73.0754H299.451ZM315.501 73.0754V89.0032H312.972L304.714 77.0266V89.0032H302.185V73.0754H304.714L312.972 85.052V73.0754H315.501ZM332.14 80.9094V86.9524C331.912 87.2441 331.557 87.5676 331.074 87.9231C330.6 88.2786 329.948 88.5839 329.119 88.8391C328.298 89.0943 327.25 89.2219 325.974 89.2219C324.917 89.2219 323.946 89.0533 323.062 88.7161C322.187 88.3697 321.426 87.873 320.779 87.2258C320.141 86.5696 319.644 85.7721 319.289 84.8333C318.942 83.8853 318.769 82.8098 318.769 81.6067V80.4583C318.769 79.2642 318.924 78.1978 319.234 77.259C319.544 76.3202 319.995 75.5227 320.587 74.8665C321.189 74.2102 321.918 73.7135 322.775 73.3762C323.641 73.0299 324.621 72.8567 325.714 72.8567C327.063 72.8567 328.184 73.0754 329.078 73.5129C329.98 73.9413 330.677 74.5338 331.169 75.2903C331.671 76.0468 331.99 76.9127 332.126 77.8879H329.625C329.524 77.3319 329.328 76.8306 329.037 76.384C328.745 75.9374 328.33 75.5865 327.792 75.3313C327.264 75.067 326.58 74.9348 325.742 74.9348C324.994 74.9348 324.343 75.0579 323.787 75.304C323.231 75.55 322.766 75.9101 322.392 76.384C322.028 76.858 321.754 77.4368 321.572 78.1204C321.399 78.7948 321.312 79.565 321.312 80.4309V81.6067C321.312 82.4908 321.421 83.2792 321.64 83.9719C321.859 84.6555 322.173 85.2343 322.583 85.7083C323.003 86.1822 323.5 86.5422 324.074 86.7883C324.657 87.0344 325.309 87.1575 326.029 87.1575C327.159 87.1575 327.984 87.039 328.503 86.802C329.023 86.5559 329.392 86.3326 329.611 86.1321V82.8782H325.769V80.9094H332.14ZM346.646 86.925V89.0032H337.568V86.925H346.646ZM338.183 73.0754V89.0032H335.654V73.0754H338.183ZM345.457 79.7336V81.7981H337.568V79.7336H345.457ZM346.564 73.0754V75.1672H337.568V73.0754H346.564ZM369.041 86.925V89.0032H356.011V87.1848L362.533 79.925C363.335 79.0318 363.955 78.2753 364.392 77.6555C364.839 77.0266 365.149 76.4661 365.322 75.9739C365.504 75.4726 365.595 74.9622 365.595 74.4426C365.595 73.7864 365.458 73.1939 365.185 72.6653C364.921 72.1275 364.529 71.6991 364.009 71.3801C363.49 71.0611 362.861 70.9016 362.123 70.9016C361.238 70.9016 360.5 71.0748 359.908 71.4211C359.324 71.7584 358.887 72.2323 358.595 72.843C358.304 73.4537 358.158 74.1555 358.158 74.9485H355.628C355.628 73.8274 355.875 72.802 356.367 71.8723C356.859 70.9426 357.588 70.2043 358.554 69.6575C359.52 69.1015 360.71 68.8235 362.123 68.8235C363.38 68.8235 364.456 69.0468 365.349 69.4934C366.242 69.9309 366.926 70.5507 367.4 71.3528C367.883 72.1458 368.125 73.0754 368.125 74.1418C368.125 74.7252 368.024 75.3176 367.824 75.9192C367.632 76.5116 367.363 77.1041 367.017 77.6965C366.68 78.289 366.283 78.8723 365.828 79.4465C365.381 80.0208 364.903 80.5859 364.392 81.1418L359.06 86.925H369.041ZM384.244 77.4641V80.4993C384.244 82.1308 384.098 83.5071 383.806 84.6282C383.514 85.7493 383.095 86.6516 382.548 87.3352C382.001 88.0188 381.341 88.5155 380.566 88.8254C379.8 89.1262 378.934 89.2766 377.968 89.2766C377.203 89.2766 376.496 89.1809 375.849 88.9895C375.202 88.7981 374.619 88.4928 374.099 88.0735C373.589 87.6451 373.151 87.0891 372.787 86.4055C372.422 85.7219 372.144 84.8925 371.953 83.9172C371.761 82.942 371.666 81.8027 371.666 80.4993V77.4641C371.666 75.8326 371.811 74.4654 372.103 73.3625C372.404 72.2597 372.828 71.3756 373.375 70.7102C373.921 70.0357 374.578 69.5527 375.343 69.261C376.118 68.9693 376.984 68.8235 377.941 68.8235C378.716 68.8235 379.427 68.9192 380.074 69.1106C380.73 69.2929 381.313 69.5891 381.824 69.9993C382.334 70.4003 382.767 70.9381 383.123 71.6125C383.487 72.2779 383.765 73.0937 383.957 74.0598C384.148 75.026 384.244 76.1607 384.244 77.4641ZM381.701 80.9094V77.0403C381.701 76.1471 381.646 75.3632 381.537 74.6887C381.436 74.0051 381.286 73.4218 381.085 72.9387C380.885 72.4556 380.63 72.0637 380.32 71.7629C380.019 71.4622 379.668 71.2434 379.267 71.1067C378.875 70.9609 378.433 70.8879 377.941 70.8879C377.339 70.8879 376.806 71.0019 376.341 71.2297C375.876 71.4485 375.485 71.7994 375.166 72.2825C374.856 72.7655 374.619 73.399 374.455 74.1829C374.291 74.9667 374.208 75.9192 374.208 77.0403V80.9094C374.208 81.8027 374.259 82.5911 374.359 83.2747C374.468 83.9583 374.628 84.5507 374.837 85.052C375.047 85.5442 375.302 85.9498 375.603 86.2688C375.904 86.5878 376.25 86.8248 376.642 86.9797C377.043 87.1256 377.485 87.1985 377.968 87.1985C378.588 87.1985 379.13 87.08 379.595 86.843C380.06 86.606 380.447 86.2369 380.757 85.7356C381.076 85.2252 381.313 84.5735 381.468 83.7805C381.623 82.9784 381.701 82.0214 381.701 80.9094ZM400.541 86.925V89.0032H387.511V87.1848L394.033 79.925C394.835 79.0318 395.455 78.2753 395.892 77.6555C396.339 77.0266 396.649 76.4661 396.822 75.9739C397.004 75.4726 397.095 74.9622 397.095 74.4426C397.095 73.7864 396.958 73.1939 396.685 72.6653C396.421 72.1275 396.029 71.6991 395.509 71.3801C394.99 71.0611 394.361 70.9016 393.623 70.9016C392.738 70.9016 392 71.0748 391.408 71.4211C390.824 71.7584 390.387 72.2323 390.095 72.843C389.804 73.4537 389.658 74.1555 389.658 74.9485H387.128C387.128 73.8274 387.375 72.802 387.867 71.8723C388.359 70.9426 389.088 70.2043 390.054 69.6575C391.02 69.1015 392.21 68.8235 393.623 68.8235C394.88 68.8235 395.956 69.0468 396.849 69.4934C397.742 69.9309 398.426 70.5507 398.9 71.3528C399.383 72.1458 399.625 73.0754 399.625 74.1418C399.625 74.7252 399.524 75.3176 399.324 75.9192C399.132 76.5116 398.863 77.1041 398.517 77.6965C398.18 78.289 397.783 78.8723 397.328 79.4465C396.881 80.0208 396.403 80.5859 395.892 81.1418L390.56 86.925H400.541ZM412.955 69.0696H413.173V71.2161H412.955C411.615 71.2161 410.494 71.4348 409.591 71.8723C408.689 72.3007 407.973 72.8795 407.445 73.6086C406.916 74.3287 406.533 75.1399 406.296 76.0422C406.069 76.9446 405.955 77.8606 405.955 78.7903V81.7161C405.955 82.6002 406.059 83.384 406.269 84.0676C406.479 84.7421 406.766 85.3118 407.13 85.7766C407.495 86.2415 407.905 86.5924 408.361 86.8293C408.826 87.0663 409.309 87.1848 409.81 87.1848C410.393 87.1848 410.913 87.0754 411.369 86.8567C411.824 86.6288 412.207 86.3144 412.517 85.9133C412.836 85.5032 413.078 85.0201 413.242 84.4641C413.406 83.9081 413.488 83.2974 413.488 82.6321C413.488 82.0396 413.415 81.47 413.269 80.9231C413.123 80.3671 412.9 79.8749 412.599 79.4465C412.298 79.009 411.92 78.6672 411.464 78.4211C411.018 78.1659 410.485 78.0383 409.865 78.0383C409.163 78.0383 408.507 78.2115 407.896 78.5579C407.294 78.8951 406.798 79.3417 406.406 79.8977C406.023 80.4446 405.804 81.0416 405.75 81.6887L404.41 81.675C404.537 80.6542 404.774 79.7838 405.121 79.0637C405.476 78.3346 405.914 77.7421 406.433 77.2864C406.962 76.8215 407.55 76.4843 408.197 76.2747C408.853 76.0559 409.546 75.9465 410.275 75.9465C411.268 75.9465 412.125 76.1334 412.845 76.5071C413.565 76.8808 414.158 77.3821 414.623 78.011C415.087 78.6308 415.429 79.3326 415.648 80.1165C415.876 80.8912 415.99 81.6887 415.99 82.509C415.99 83.4478 415.858 84.3274 415.593 85.1477C415.329 85.968 414.932 86.6881 414.404 87.3079C413.884 87.9277 413.242 88.4107 412.476 88.7571C411.71 89.1034 410.822 89.2766 409.81 89.2766C408.735 89.2766 407.796 89.0579 406.994 88.6204C406.192 88.1737 405.526 87.5813 404.998 86.843C404.469 86.1047 404.072 85.2844 403.808 84.3821C403.544 83.4797 403.412 82.5637 403.412 81.634V80.4446C403.412 79.0409 403.553 77.6646 403.835 76.3157C404.118 74.9667 404.606 73.7454 405.298 72.6516C406 71.5579 406.971 70.6874 408.21 70.0403C409.45 69.3931 411.031 69.0696 412.955 69.0696Z" fill="white"/>
</svg>
